<?xml version="1.0" encoding="UTF-8"?>
<svg id="Layer_2" xmlns="http://www.w3.org/2000/svg" viewBox="0 0 1123.15 272.55">
  <defs>
    <style>
      .cls-1 {
        fill: #f95454;
      }

      .cls-2 {
        fill: #0d92f4;
      }

      .cls-3 {
        fill: #fff;
      }

      .cls-4 {
        fill: #399918;
      }
    </style>
  </defs>
  <g id="Layer_1-2" data-name="Layer_1">
    <g>
      <g>
        <path class="cls-1" d="M135.13,206.64h-27.38c-2.1,0-3.88.74-5.35,2.2-1.47,1.47-2.2,3.25-2.2,5.34v46.77c0,2.09-.73,3.87-2.19,5.34-1.46,1.47-3.23,2.2-5.31,2.2h-47.16c-2.08,0-3.85-.73-5.31-2.2-1.46-1.46-2.18-3.24-2.18-5.34V46.24c0-2.09.73-3.87,2.2-5.34,1.46-1.46,3.24-2.2,5.34-2.2h96.05c11.72,0,22.76,2.2,33.11,6.59,10.36,4.39,19.35,10.47,26.99,18.21,7.64,7.74,13.7,16.74,18.21,26.99,4.5,10.26,6.75,21.24,6.75,32.96s-1.89,22.65-5.66,32.8c-3.78,10.15-9.5,18.94-17.15,26.37-7.66,7.43-17.2,13.29-28.63,17.58-11.44,4.29-24.81,6.43-40.12,6.43Z"/>
        <path class="cls-1" d="M263.73,46.55c0-2.09.73-3.87,2.18-5.34,1.46-1.46,3.23-2.2,5.31-2.2h47.16c2.08,0,3.85.74,5.31,2.2,1.46,1.47,2.19,3.25,2.19,5.34v127.13c0,8.16,1.31,14.91,3.94,20.25,2.63,5.34,5.88,9.52,9.77,12.56,3.88,3.04,8.04,5.18,12.45,6.44,4.41,1.26,8.41,1.88,11.98,1.88s7.56-.63,11.98-1.88c4.41-1.26,8.51-3.4,12.29-6.44,3.78-3.03,6.98-7.22,9.61-12.56,2.63-5.34,3.94-12.08,3.94-20.25V46.55c0-2.09.73-3.87,2.18-5.34,1.46-1.46,3.23-2.2,5.31-2.2h47.16c2.08,0,3.85.74,5.31,2.2,1.46,1.47,2.19,3.25,2.19,5.34v127.13c0,14.86-2.35,28.36-7.05,40.49-4.7,12.14-11.44,22.5-20.21,31.07-8.78,8.58-19.33,15.22-31.65,19.93-12.33,4.71-26.01,7.06-41.06,7.06s-28.73-2.35-41.06-7.06c-12.33-4.71-22.88-11.35-31.65-19.93-8.78-8.58-15.57-18.94-20.37-31.07-4.81-12.13-7.21-25.63-7.21-40.49V46.55Z"/>
        <path class="cls-2" d="M695.01,218.25v42.69c0,2.09-.73,3.87-2.2,5.34-1.47,1.47-3.25,2.2-5.34,2.2h-156.63c-2.31,0-4.14-.73-5.49-2.2-1.36-1.46-2.04-3.24-2.04-5.34V46.24c0-2.09.68-3.87,2.04-5.34,1.36-1.46,3.19-2.2,5.49-2.2h47.08c2.09,0,3.87.74,5.34,2.2,1.46,1.47,2.2,3.25,2.2,5.34v156.94c0,2.09.68,3.87,2.04,5.34,1.36,1.47,3.19,2.2,5.49,2.2h94.48c2.09,0,3.87.73,5.34,2.2,1.46,1.47,2.2,3.25,2.2,5.34Z"/>
        <path class="cls-4" d="M748.69,189.69c11.3,7.33,22.49,13.08,33.59,17.26,11.09,4.19,21.45,6.28,31.08,6.28s16.21-1.3,21.03-3.92c4.81-2.61,7.22-6.54,7.22-11.77,0-2.72-1.05-4.86-3.14-6.43-2.09-1.57-4.86-2.87-8.32-3.92-3.45-1.04-7.48-1.88-12.08-2.51-4.6-.63-9.31-1.46-14.12-2.51-4.61-.83-10-1.83-16.17-2.98-6.17-1.15-12.51-2.82-18.99-5.02-6.49-2.2-12.92-4.97-19.3-8.32-6.39-3.34-12.08-7.64-17.11-12.87-5.02-5.23-9.05-11.46-12.08-18.68-3.04-7.22-4.55-15.74-4.55-25.58,0-14.44,2.83-26.37,8.48-35.78s12.82-16.9,21.5-22.44c8.68-5.54,18.36-9.42,29.03-11.61,10.67-2.2,21.03-3.3,31.08-3.3,17.58,0,33.32,2.57,47.24,7.69,13.91,5.13,27.25,12.61,40.02,22.44,1.67,1.47,2.61,3.25,2.82,5.34.21,2.09-.31,3.98-1.57,5.65l-24.48,34.84c-1.26,1.68-2.93,2.72-5.02,3.14-2.1.42-3.98,0-5.65-1.26-10.67-6.69-20.61-11.46-29.82-14.28-9.21-2.82-17.69-4.24-25.43-4.24-2.31,0-4.97.05-8.01.16-3.04.11-5.91.52-8.63,1.26-2.72.74-4.97,1.94-6.75,3.61-1.78,1.68-2.67,3.98-2.67,6.91s2.2,5.55,6.59,7.85c4.39,2.31,9.42,4.29,15.07,5.96,5.65,1.68,11.09,2.98,16.32,3.92,5.23.94,8.58,1.52,10.04,1.73,7.53,1.47,15.8,3.61,24.8,6.44,8.99,2.82,17.42,7.01,25.27,12.56,7.85,5.55,14.44,12.77,19.78,21.66,5.33,8.9,8,20.04,8,33.43,0,12.56-2.2,23.38-6.59,32.49-4.39,9.1-10.51,16.59-18.36,22.44-7.85,5.86-17.26,10.2-28.25,13.03-10.99,2.83-23.18,4.24-36.57,4.24-10.88,0-21.03-.89-30.45-2.67-9.42-1.78-18.2-4.24-26.37-7.38-8.16-3.14-15.75-6.85-22.76-11.14-7.01-4.29-13.45-8.84-19.31-13.65-1.68-1.26-2.62-2.98-2.82-5.18-.21-2.2.31-4.13,1.57-5.81l24.17-34.84c1.26-1.67,2.93-2.72,5.02-3.14,2.09-.42,3.97-.1,5.65.94Z"/>
        <path class="cls-4" d="M1010.47,104v13.18c0,2.09.73,3.87,2.2,5.34,1.46,1.47,3.24,2.2,5.34,2.2h85.06c2.09,0,3.87.74,5.34,2.2,1.46,1.47,2.2,3.25,2.2,5.34v43.32c0,2.09-.73,3.87-2.2,5.34-1.47,1.47-3.25,2.2-5.34,2.2h-85.06c-2.1,0-3.88.74-5.34,2.2-1.47,1.47-2.2,3.25-2.2,5.34v11.93c0,2.09.73,3.87,2.2,5.34,1.46,1.47,3.24,2.2,5.34,2.2h97.62c2.09,0,3.87.73,5.34,2.2,1.46,1.47,2.2,3.25,2.2,5.34v43.32c0,2.09-.73,3.87-2.2,5.34-1.47,1.47-3.25,2.2-5.34,2.2h-159.77c-2.1,0-3.88-.73-5.34-2.2-1.47-1.46-2.2-3.24-2.2-5.34V46.24c0-2.09.73-3.87,2.2-5.34,1.46-1.46,3.24-2.2,5.34-2.2h159.77c2.09,0,3.87.74,5.34,2.2,1.46,1.47,2.2,3.25,2.2,5.34v42.69c0,2.09-.73,3.87-2.2,5.34-1.47,1.47-3.25,2.2-5.34,2.2h-97.62c-2.1,0-3.88.73-5.34,2.2-1.47,1.47-2.2,3.25-2.2,5.34Z"/>
      </g>
      <g>
        <path class="cls-3" d="M107.02,178.94h-27.38c-2.1,0-3.88.74-5.35,2.2-1.47,1.47-2.2,3.25-2.2,5.34v46.77c0,2.09-.73,3.87-2.19,5.34-1.46,1.47-3.23,2.2-5.31,2.2H17.44c-2.08,0-3.85-.73-5.31-2.2-1.46-1.46-2.18-3.24-2.18-5.34V18.54c0-2.09.73-3.87,2.2-5.34,1.46-1.46,3.24-2.2,5.34-2.2h96.05c11.72,0,22.76,2.2,33.11,6.59,10.36,4.39,19.35,10.47,26.99,18.21,7.64,7.74,13.7,16.74,18.21,26.99,4.5,10.26,6.75,21.24,6.75,32.96s-1.89,22.65-5.66,32.8c-3.78,10.15-9.5,18.94-17.15,26.37-7.66,7.43-17.2,13.29-28.63,17.58-11.44,4.29-24.81,6.43-40.12,6.43ZM109.31,68.77h-29.65c-2.11,0-3.89.73-5.37,2.19-1.47,1.46-2.21,3.22-2.21,5.3v36.81c0,2.08.74,3.85,2.21,5.31,1.47,1.46,3.26,2.18,5.37,2.18h33.75c7.99,0,13.83-2.55,17.5-7.64s5.52-10.87,5.52-17.32c0-3.32-.58-6.6-1.74-9.83-1.16-3.22-2.89-6.08-5.2-8.58s-5.15-4.53-8.51-6.09-7.26-2.34-11.67-2.34Z"/>
        <path class="cls-3" d="M235.63,18.86c0-2.09.73-3.87,2.18-5.34,1.46-1.46,3.23-2.2,5.31-2.2h47.16c2.08,0,3.85.74,5.31,2.2,1.46,1.47,2.19,3.25,2.19,5.34v127.13c0,8.16,1.31,14.91,3.94,20.25,2.63,5.34,5.88,9.52,9.77,12.56,3.88,3.04,8.04,5.18,12.45,6.44,4.41,1.26,8.41,1.88,11.98,1.88s7.56-.63,11.98-1.88c4.41-1.26,8.51-3.4,12.29-6.44,3.78-3.03,6.98-7.22,9.61-12.56,2.63-5.34,3.94-12.08,3.94-20.25V18.86c0-2.09.73-3.87,2.18-5.34,1.46-1.46,3.23-2.2,5.31-2.2h47.16c2.08,0,3.85.74,5.31,2.2,1.46,1.47,2.19,3.25,2.19,5.34v127.13c0,14.86-2.35,28.36-7.05,40.49-4.7,12.14-11.44,22.5-20.21,31.07-8.78,8.58-19.33,15.22-31.65,19.93-12.33,4.71-26.01,7.06-41.06,7.06s-28.73-2.35-41.06-7.06c-12.33-4.71-22.88-11.35-31.65-19.93-8.78-8.58-15.57-18.94-20.37-31.07-4.81-12.13-7.21-25.63-7.21-40.49V18.86Z"/>
        <path class="cls-3" d="M666.91,190.55v42.69c0,2.09-.73,3.87-2.2,5.34-1.47,1.47-3.25,2.2-5.34,2.2h-156.63c-2.31,0-4.14-.73-5.49-2.2-1.36-1.46-2.04-3.24-2.04-5.34V18.54c0-2.09.68-3.87,2.04-5.34,1.36-1.46,3.19-2.2,5.49-2.2h47.08c2.09,0,3.87.74,5.34,2.2,1.46,1.47,2.2,3.25,2.2,5.34v156.94c0,2.09.68,3.87,2.04,5.34,1.36,1.47,3.19,2.2,5.49,2.2h94.48c2.09,0,3.87.73,5.34,2.2,1.46,1.47,2.2,3.25,2.2,5.34Z"/>
        <path class="cls-3" d="M720.58,161.99c11.3,7.33,22.49,13.08,33.59,17.26,11.09,4.19,21.45,6.28,31.08,6.28s16.21-1.3,21.03-3.92c4.81-2.61,7.22-6.54,7.22-11.77,0-2.72-1.05-4.86-3.14-6.43-2.09-1.57-4.86-2.87-8.32-3.92-3.45-1.04-7.48-1.88-12.08-2.51-4.6-.63-9.31-1.46-14.12-2.51-4.61-.83-10-1.83-16.17-2.98-6.17-1.15-12.51-2.82-18.99-5.02-6.49-2.2-12.92-4.97-19.3-8.32-6.39-3.34-12.08-7.64-17.11-12.87-5.02-5.23-9.05-11.46-12.08-18.68-3.04-7.22-4.55-15.74-4.55-25.58,0-14.44,2.83-26.37,8.48-35.78s12.82-16.9,21.5-22.44c8.68-5.54,18.36-9.42,29.03-11.61s21.03-3.3,31.08-3.3c17.58,0,33.32,2.57,47.24,7.69,13.91,5.13,27.25,12.61,40.02,22.44,1.67,1.47,2.61,3.25,2.82,5.34.21,2.09-.31,3.98-1.57,5.65l-24.48,34.84c-1.26,1.68-2.93,2.72-5.02,3.14-2.1.42-3.98,0-5.65-1.26-10.67-6.69-20.61-11.46-29.82-14.28-9.21-2.82-17.69-4.24-25.43-4.24-2.31,0-4.97.05-8.01.16-3.04.11-5.91.52-8.63,1.26-2.72.74-4.97,1.94-6.75,3.61-1.78,1.68-2.67,3.98-2.67,6.91s2.2,5.55,6.59,7.85c4.39,2.31,9.42,4.29,15.07,5.96,5.65,1.68,11.09,2.98,16.32,3.92,5.23.94,8.58,1.52,10.04,1.73,7.53,1.47,15.8,3.61,24.8,6.44,8.99,2.82,17.42,7.01,25.27,12.56,7.85,5.55,14.44,12.77,19.78,21.66,5.33,8.9,8,20.04,8,33.43,0,12.56-2.2,23.38-6.59,32.49-4.39,9.1-10.51,16.59-18.36,22.44-7.85,5.86-17.26,10.2-28.25,13.03-10.99,2.83-23.18,4.24-36.57,4.24-10.88,0-21.03-.89-30.45-2.67-9.42-1.78-18.2-4.24-26.37-7.38-8.16-3.14-15.75-6.85-22.76-11.14-7.01-4.29-13.45-8.84-19.31-13.65-1.68-1.26-2.62-2.98-2.82-5.18-.21-2.2.31-4.13,1.57-5.81l24.17-34.84c1.26-1.67,2.93-2.72,5.02-3.14,2.09-.42,3.97-.1,5.65.94Z"/>
        <path class="cls-3" d="M982.36,76.3v13.18c0,2.09.73,3.87,2.2,5.34,1.46,1.47,3.24,2.2,5.34,2.2h85.06c2.09,0,3.87.74,5.34,2.2,1.46,1.47,2.2,3.25,2.2,5.34v43.32c0,2.09-.73,3.87-2.2,5.34-1.47,1.47-3.25,2.2-5.34,2.2h-85.06c-2.1,0-3.88.74-5.34,2.2-1.47,1.47-2.2,3.25-2.2,5.34v11.93c0,2.09.73,3.87,2.2,5.34,1.46,1.47,3.24,2.2,5.34,2.2h97.62c2.09,0,3.87.73,5.34,2.2,1.46,1.47,2.2,3.25,2.2,5.34v43.32c0,2.09-.73,3.87-2.2,5.34-1.47,1.47-3.25,2.2-5.34,2.2h-159.77c-2.1,0-3.88-.73-5.34-2.2-1.47-1.46-2.2-3.24-2.2-5.34V18.54c0-2.09.73-3.87,2.2-5.34,1.46-1.46,3.24-2.2,5.34-2.2h159.77c2.09,0,3.87.74,5.34,2.2,1.46,1.47,2.2,3.25,2.2,5.34v42.69c0,2.09-.73,3.87-2.2,5.34-1.47,1.47-3.25,2.2-5.34,2.2h-97.62c-2.1,0-3.88.73-5.34,2.2-1.47,1.47-2.2,3.25-2.2,5.34Z"/>
      </g>
      <g>
        <path d="M97.08,171.07h-27.38c-2.1,0-3.88.74-5.35,2.2-1.47,1.47-2.2,3.25-2.2,5.34v46.77c0,2.09-.73,3.87-2.19,5.34-1.46,1.47-3.23,2.2-5.31,2.2H7.49c-2.08,0-3.85-.73-5.31-2.2-1.46-1.46-2.18-3.24-2.18-5.34V10.67c0-2.09.73-3.87,2.2-5.34,1.46-1.46,3.24-2.2,5.34-2.2h96.05c11.72,0,22.76,2.2,33.11,6.59,10.36,4.39,19.35,10.47,26.99,18.21,7.64,7.74,13.7,16.74,18.21,26.99,4.5,10.26,6.75,21.24,6.75,32.96s-1.89,22.65-5.66,32.8c-3.78,10.15-9.5,18.94-17.15,26.37-7.66,7.43-17.2,13.29-28.63,17.58-11.44,4.29-24.81,6.43-40.12,6.43ZM99.37,60.89h-29.65c-2.11,0-3.89.73-5.37,2.19-1.47,1.46-2.21,3.22-2.21,5.3v36.81c0,2.08.74,3.85,2.21,5.31,1.47,1.46,3.26,2.18,5.37,2.18h33.75c7.99,0,13.83-2.55,17.5-7.64s5.52-10.87,5.52-17.32c0-3.32-.58-6.6-1.74-9.83-1.16-3.22-2.89-6.08-5.2-8.58s-5.15-4.53-8.51-6.09-7.26-2.34-11.67-2.34Z"/>
        <path d="M225.68,10.99c0-2.09.73-3.87,2.18-5.34,1.46-1.46,3.23-2.2,5.31-2.2h47.16c2.08,0,3.85.74,5.31,2.2,1.46,1.47,2.19,3.25,2.19,5.34v127.13c0,8.16,1.31,14.91,3.94,20.25,2.63,5.34,5.88,9.52,9.77,12.56,3.88,3.04,8.04,5.18,12.45,6.44,4.41,1.26,8.41,1.88,11.98,1.88s7.56-.63,11.98-1.88c4.41-1.26,8.51-3.4,12.29-6.44,3.78-3.03,6.98-7.22,9.61-12.56,2.63-5.34,3.94-12.08,3.94-20.25V10.99c0-2.09.73-3.87,2.18-5.34,1.46-1.46,3.23-2.2,5.31-2.2h47.16c2.08,0,3.85.74,5.31,2.2,1.46,1.47,2.19,3.25,2.19,5.34v127.13c0,14.86-2.35,28.36-7.05,40.49-4.7,12.14-11.44,22.5-20.21,31.07-8.78,8.58-19.33,15.22-31.65,19.93-12.33,4.71-26.01,7.06-41.06,7.06s-28.73-2.35-41.06-7.06c-12.33-4.71-22.88-11.35-31.65-19.93-8.78-8.58-15.57-18.94-20.37-31.07-4.81-12.13-7.21-25.63-7.21-40.49V10.99Z"/>
        <path d="M656.96,182.68v42.69c0,2.09-.73,3.87-2.2,5.34-1.47,1.47-3.25,2.2-5.34,2.2h-156.63c-2.31,0-4.14-.73-5.49-2.2-1.36-1.46-2.04-3.24-2.04-5.34V10.67c0-2.09.68-3.87,2.04-5.34,1.36-1.46,3.19-2.2,5.49-2.2h47.08c2.09,0,3.87.74,5.34,2.2,1.46,1.47,2.2,3.25,2.2,5.34v156.94c0,2.09.68,3.87,2.04,5.34,1.36,1.47,3.19,2.2,5.49,2.2h94.48c2.09,0,3.87.73,5.34,2.2,1.46,1.47,2.2,3.25,2.2,5.34Z"/>
        <path d="M710.64,154.12c11.3,7.33,22.49,13.08,33.59,17.26,11.09,4.19,21.45,6.28,31.08,6.28s16.21-1.3,21.03-3.92c4.81-2.61,7.22-6.54,7.22-11.77,0-2.72-1.05-4.86-3.14-6.43-2.09-1.57-4.86-2.87-8.32-3.92-3.45-1.04-7.48-1.88-12.08-2.51-4.6-.63-9.31-1.46-14.12-2.51-4.61-.83-10-1.83-16.17-2.98-6.17-1.15-12.51-2.82-18.99-5.02-6.49-2.2-12.92-4.97-19.3-8.32-6.39-3.34-12.08-7.64-17.11-12.87-5.02-5.23-9.05-11.46-12.08-18.68-3.04-7.22-4.55-15.74-4.55-25.58,0-14.44,2.83-26.37,8.48-35.78s12.82-16.9,21.5-22.44c8.68-5.54,18.36-9.42,29.03-11.61s21.03-3.3,31.08-3.3c17.58,0,33.32,2.57,47.24,7.69,13.91,5.13,27.25,12.61,40.02,22.44,1.67,1.47,2.61,3.25,2.82,5.34.21,2.09-.31,3.98-1.57,5.65l-24.48,34.84c-1.26,1.68-2.93,2.72-5.02,3.14-2.1.42-3.98,0-5.65-1.26-10.67-6.69-20.61-11.46-29.82-14.28-9.21-2.82-17.69-4.24-25.43-4.24-2.31,0-4.97.05-8.01.16-3.04.11-5.91.52-8.63,1.26-2.72.74-4.97,1.94-6.75,3.61-1.78,1.68-2.67,3.98-2.67,6.91s2.2,5.55,6.59,7.85c4.39,2.31,9.42,4.29,15.07,5.96,5.65,1.68,11.09,2.98,16.32,3.92,5.23.94,8.58,1.52,10.04,1.73,7.53,1.47,15.8,3.61,24.8,6.44,8.99,2.82,17.42,7.01,25.27,12.56,7.85,5.55,14.44,12.77,19.78,21.66,5.33,8.9,8,20.04,8,33.43,0,12.56-2.2,23.38-6.59,32.49-4.39,9.1-10.51,16.59-18.36,22.44-7.85,5.86-17.26,10.2-28.25,13.03-10.99,2.83-23.18,4.24-36.57,4.24-10.88,0-21.03-.89-30.45-2.67-9.42-1.78-18.2-4.24-26.37-7.38-8.16-3.14-15.75-6.85-22.76-11.14-7.01-4.29-13.45-8.84-19.31-13.65-1.68-1.26-2.62-2.98-2.82-5.18-.21-2.2.31-4.13,1.57-5.81l24.17-34.84c1.26-1.67,2.93-2.72,5.02-3.14,2.09-.42,3.97-.1,5.65.94Z"/>
        <path d="M972.42,68.43v13.18c0,2.09.73,3.87,2.2,5.34,1.46,1.47,3.24,2.2,5.34,2.2h85.06c2.09,0,3.87.74,5.34,2.2,1.46,1.47,2.2,3.25,2.2,5.34v43.32c0,2.09-.73,3.87-2.2,5.34-1.47,1.47-3.25,2.2-5.34,2.2h-85.06c-2.1,0-3.88.74-5.34,2.2-1.47,1.47-2.2,3.25-2.2,5.34v11.93c0,2.09.73,3.87,2.2,5.34,1.46,1.47,3.24,2.2,5.34,2.2h97.62c2.09,0,3.87.73,5.34,2.2,1.46,1.47,2.2,3.25,2.2,5.34v43.32c0,2.09-.73,3.87-2.2,5.34-1.47,1.47-3.25,2.2-5.34,2.2h-159.77c-2.1,0-3.88-.73-5.34-2.2-1.47-1.46-2.2-3.24-2.2-5.34V10.67c0-2.09.73-3.87,2.2-5.34,1.46-1.46,3.24-2.2,5.34-2.2h159.77c2.09,0,3.87.74,5.34,2.2,1.46,1.47,2.2,3.25,2.2,5.34v42.69c0,2.09-.73,3.87-2.2,5.34-1.47,1.47-3.25,2.2-5.34,2.2h-97.62c-2.1,0-3.88.73-5.34,2.2-1.47,1.47-2.2,3.25-2.2,5.34Z"/>
      </g>
    </g>
  </g>
</svg>